<?xml version="1.0" standalone="no"?>
<!DOCTYPE svg PUBLIC "-//W3C//DTD SVG 20010904//EN"
 "http://www.w3.org/TR/2001/REC-SVG-20010904/DTD/svg10.dtd">
<svg version="1.0" xmlns="http://www.w3.org/2000/svg"
 width="512.000000pt" height="512.000000pt" viewBox="0 0 512.000000 512.000000"
 preserveAspectRatio="xMidYMid meet">

<g transform="translate(0.000000,512.000000) scale(0.100000,-0.100000)"
fill="#d3d3d3" stroke="none">
<path d="M2093 5108 c-12 -6 -31 -29 -41 -52 -65 -139 -2052 -4958 -2052
-4976 0 -28 52 -80 81 -80 13 0 323 139 689 310 366 170 669 310 673 310 4 0
7 -90 7 -200 0 -230 11 -278 77 -342 59 -56 98 -72 178 -73 80 0 128 19 181
72 60 60 68 85 72 229 l4 132 64 -6 c106 -8 198 41 247 132 20 37 22 59 27
251 l5 209 424 198 c234 109 426 198 427 198 1 0 4 -69 6 -152 3 -145 4 -155
30 -199 67 -114 207 -160 323 -105 101 47 146 119 153 241 l4 81 77 -1 c84 0
122 15 179 69 68 64 76 91 82 291 l5 180 535 246 c336 155 541 256 553 271 18
21 19 34 13 164 -17 374 -103 714 -265 1049 -146 302 -293 508 -530 745 -237
236 -433 377 -726 520 -247 121 -490 199 -741 238 -161 26 -195 29 -479 47
-264 17 -253 17 -282 3z m597 -198 c480 -52 977 -265 1350 -578 479 -401 804
-991 884 -1602 8 -63 18 -153 21 -200 l6 -85 -222 -103 c-122 -56 -224 -101
-226 -98 -2 2 -15 57 -28 122 -165 814 -729 1519 -1487 1860 -281 126 -550
196 -867 225 -88 8 -130 16 -127 23 2 6 43 105 91 221 48 115 91 219 95 230 8
20 10 20 206 8 110 -6 246 -17 304 -23z m-577 -631 c454 -39 915 -214 1261
-477 134 -101 346 -295 346 -316 0 -2 -13 1 -29 7 -26 9 -40 5 -128 -37 -107
-52 -131 -69 -144 -104 -13 -35 12 -86 50 -102 30 -12 38 -10 146 43 121 59
139 77 133 133 -2 19 -3 34 -1 34 1 0 36 -42 76 -92 85 -108 158 -215 212
-311 l38 -69 -26 -21 c-34 -29 -117 -198 -117 -239 0 -45 34 -78 80 -78 45 0
66 21 110 110 l33 65 19 -45 c62 -141 122 -360 162 -586 l5 -32 -235 -108
c-189 -88 -239 -114 -250 -136 -11 -20 -14 -74 -14 -218 l0 -192 -29 -29 c-38
-38 -74 -38 -112 0 -28 29 -29 32 -29 136 0 106 -8 138 -39 162 -28 21 -76 15
-104 -13 l-26 -26 -3 -290 -3 -290 -28 -24 c-37 -31 -77 -31 -110 1 l-25 25
-5 248 c-5 277 -10 304 -78 442 -80 160 -248 297 -429 346 -45 13 -100 18
-180 17 -98 0 -127 -4 -195 -27 -265 -90 -438 -298 -476 -573 -12 -90 -1 -198
31 -295 22 -66 88 -186 114 -208 14 -11 16 -46 16 -237 l0 -224 -25 -24 c-51
-52 -129 -20 -142 58 -12 74 -97 108 -146 59 -21 -22 -22 -29 -25 -271 -3
-231 -4 -250 -23 -270 -27 -28 -62 -36 -95 -19 -51 24 -54 40 -54 341 l0 279
-31 29 c-29 27 -30 31 -17 47 30 34 51 109 46 164 -15 178 -203 289 -360 214
-113 -54 -175 -194 -136 -307 27 -81 86 -137 177 -169 l43 -16 -103 -48 c-57
-26 -110 -50 -116 -53 -10 -4 -13 11 -13 57 0 90 -26 129 -88 130 -22 0 -41
-8 -57 -25 -24 -23 -25 -31 -25 -137 l-1 -113 -341 -158 c-187 -87 -342 -156
-343 -155 -2 2 36 96 83 210 l85 206 103 4 c92 3 105 5 128 27 35 33 35 83 1
116 -21 22 -33 25 -90 25 -36 0 -65 3 -65 8 0 12 140 346 150 356 4 4 32 3 62
-3 75 -17 232 -14 303 4 33 8 98 34 145 57 119 57 239 178 298 298 55 112 73
185 73 300 1 107 -10 164 -48 260 -51 127 -141 239 -256 315 -32 21 -56 43
-53 49 2 6 45 109 95 228 49 120 92 222 96 227 3 5 33 -8 68 -28 110 -68 196
-93 332 -98 102 -5 132 -2 198 16 470 129 661 678 372 1070 -88 119 -253 225
-398 256 -34 7 -61 16 -60 21 1 5 11 30 22 57 24 55 16 54 214 36z m-155 -300
c205 -70 342 -262 342 -479 0 -147 -45 -255 -150 -360 -105 -105 -213 -150
-360 -150 -114 0 -244 47 -323 116 l-29 24 161 388 c88 213 170 411 182 440
l22 52 51 -6 c28 -4 75 -15 104 -25z m-787 -1703 c63 -50 127 -139 160 -224
33 -85 38 -229 10 -319 -52 -175 -205 -316 -381 -354 -53 -11 -224 -9 -236 4
-5 5 120 317 357 885 12 28 24 52 28 52 3 0 31 -20 62 -44z m1637 -257 c158
-52 284 -185 328 -346 9 -35 15 -65 13 -67 -8 -7 -872 -406 -880 -406 -11 0
-53 57 -79 110 -96 191 -62 411 88 572 140 148 337 199 530 137z m-1387 -938
c31 -31 36 -59 17 -94 -17 -32 -39 -46 -73 -46 -34 0 -56 14 -73 46 -19 35
-14 63 17 94 38 38 74 38 112 0z"/>
<path d="M2760 3900 c-33 -33 -110 -196 -110 -233 0 -56 56 -94 109 -76 25 9
40 30 86 119 30 60 55 120 55 135 0 62 -95 100 -140 55z"/>
<path d="M2775 3324 c-61 -15 -92 -30 -127 -62 -174 -157 -66 -442 166 -442
145 0 255 109 256 250 0 97 -65 198 -150 234 -40 16 -116 27 -145 20z m103
-200 c29 -33 29 -78 -3 -109 -65 -65 -173 9 -133 91 27 58 93 66 136 18z"/>
<path d="M3016 2705 c-33 -30 -36 -85 -6 -115 11 -11 60 -40 110 -65 121 -61
173 -59 200 5 10 24 10 36 0 61 -11 25 -33 41 -121 85 -60 30 -119 54 -132 54
-13 0 -36 -11 -51 -25z"/>
<path d="M3713 2639 c-121 -22 -201 -110 -211 -234 -6 -77 23 -149 80 -201 54
-48 101 -66 173 -66 308 0 346 445 42 500 -23 5 -61 5 -84 1z m97 -189 c44
-44 33 -111 -22 -134 -85 -36 -158 65 -93 129 31 31 86 34 115 5z"/>
<path d="M2349 2595 c-87 -44 -129 -82 -129 -116 0 -48 41 -89 90 -89 31 0
219 100 236 126 21 31 11 88 -19 109 -36 25 -86 17 -178 -30z"/>
<path d="M1810 2551 c-87 -28 -151 -93 -176 -177 -36 -123 21 -244 141 -300
167 -78 355 44 355 231 0 100 -55 187 -146 230 -43 21 -135 29 -174 16z m103
-173 c53 -28 64 -92 22 -133 -63 -64 -171 12 -133 93 13 26 50 52 76 52 7 0
23 -5 35 -12z"/>
<path d="M3458 2080 c-53 -27 -104 -60 -112 -72 -38 -54 1 -128 66 -128 46 1
229 97 247 131 28 51 -13 119 -71 118 -19 0 -75 -21 -130 -49z"/>
<path d="M1605 1532 c-57 -12 -83 -82 -49 -131 19 -26 206 -121 240 -121 38 0
78 42 78 83 0 48 -14 62 -117 114 -109 54 -126 61 -152 55z"/>
</g>
</svg>
