<svg width="17" height="21" viewBox="0 0 17 21" fill="none" xmlns="http://www.w3.org/2000/svg">
<circle cx="8.57881" cy="5.27803" r="4.77803" fill="#BAC6D1"/>
<path fill-rule="evenodd" clip-rule="evenodd" d="M1.00002 16.7014C0.998732 16.3655 1.07385 16.0337 1.2197 15.7311C1.67736 14.8158 2.96798 14.3307 4.03892 14.111C4.81128 13.9462 5.59431 13.836 6.38217 13.7815C7.84084 13.6533 9.30793 13.6533 10.7666 13.7815C11.5544 13.8367 12.3374 13.9468 13.1099 14.111C14.1808 14.3307 15.4714 14.77 15.9291 15.7311C16.2224 16.3479 16.2224 17.064 15.9291 17.6808C15.4714 18.6419 14.1808 19.0812 13.1099 19.2918C12.3384 19.4634 11.5551 19.5766 10.7666 19.6304C9.57937 19.7311 8.38659 19.7494 7.19681 19.6854C6.92221 19.6854 6.65677 19.6854 6.38217 19.6304C5.59663 19.5773 4.81632 19.4641 4.04807 19.2918C2.96798 19.0812 1.68652 18.6419 1.2197 17.6808C1.0746 17.3747 0.999552 17.0401 1.00002 16.7014Z" fill="#BAC6D1" stroke="#BAC6D1" stroke-width="1.5" stroke-linecap="round" stroke-linejoin="round"/>
</svg>
